<svg width="143" height="48" viewBox="0 0 143 48" fill="none" xmlns="http://www.w3.org/2000/svg">
<rect width="42" height="42" fill="#222222"/>
<path d="M13.9671 29.07C14.9031 29.07 15.6225 29.1913 16.1251 29.434C16.6278 29.6593 17.0351 30.1273 17.3471 30.838L19.9731 37H23.0151V35.7H21.4031L19.1671 30.526C18.8031 29.7287 18.3785 29.1567 17.8931 28.81C18.6038 28.6367 19.1845 28.3767 19.6351 28.03C20.1031 27.6833 20.4411 27.2587 20.6491 26.756C20.8745 26.2533 21.0218 25.7593 21.0911 25.274C21.1605 24.7887 21.1951 24.2167 21.1951 23.558C21.1951 22.8993 21.1605 22.336 21.0911 21.868C21.0391 21.4 20.9005 20.906 20.6751 20.386C20.4498 19.866 20.1378 19.45 19.7391 19.138C19.3405 18.8087 18.7771 18.54 18.0491 18.332C17.3385 18.124 16.4891 18.02 15.5011 18.02H10.0411H8.48113V19.32H10.0411V35.7H8.48113V37H13.4731V35.7H11.9131V29.07H13.9671ZM11.9131 27.536V19.554H15.5011C16.3331 19.554 17.0178 19.658 17.5551 19.866C18.0925 20.0567 18.4825 20.3513 18.7251 20.75C18.9678 21.1487 19.1238 21.556 19.1931 21.972C19.2798 22.388 19.3231 22.9167 19.3231 23.558C19.3231 24.182 19.2798 24.702 19.1931 25.118C19.1238 25.534 18.9678 25.9413 18.7251 26.34C18.4825 26.7387 18.0925 27.042 17.5551 27.25C17.0178 27.4407 16.3331 27.536 15.5011 27.536H11.9131ZM31.8338 37.364C32.9431 37.364 33.8705 37.234 34.6158 36.974C35.3785 36.714 35.9505 36.3413 36.3318 35.856C36.7305 35.3533 37.0165 34.842 37.1898 34.322C37.3631 33.7847 37.4845 33.1433 37.5538 32.398L36.0458 32.32C35.9418 33.464 35.5951 34.3393 35.0058 34.946C34.4165 35.5353 33.3418 35.83 31.7818 35.83C30.0658 35.83 28.9131 35.388 28.3238 34.504C27.7518 33.6027 27.4571 32.0947 27.4398 29.98H37.7878V29.564C37.7878 28.6453 37.7531 27.8567 37.6838 27.198C37.6145 26.522 37.4585 25.82 37.2158 25.092C36.9731 24.364 36.6351 23.7747 36.2018 23.324C35.7858 22.8733 35.1965 22.5007 34.4338 22.206C33.6885 21.9113 32.7871 21.764 31.7298 21.764C30.6725 21.764 29.7625 21.9113 28.9998 22.206C28.2371 22.5007 27.6391 22.8733 27.2058 23.324C26.7725 23.7747 26.4345 24.364 26.1918 25.092C25.9491 25.82 25.7931 26.522 25.7238 27.198C25.6545 27.8567 25.6198 28.6453 25.6198 29.564C25.6198 32.2853 26.0445 34.27 26.8938 35.518C27.7605 36.7487 29.4071 37.364 31.8338 37.364ZM31.7038 23.298C32.5878 23.298 33.3158 23.428 33.8878 23.688C34.4771 23.948 34.9105 24.3467 35.1878 24.884C35.4651 25.404 35.6558 25.9413 35.7598 26.496C35.8638 27.0507 35.9245 27.7353 35.9418 28.55H27.4398C27.4571 27.77 27.5178 27.1027 27.6218 26.548C27.7431 25.9933 27.9425 25.456 28.2198 24.936C28.5145 24.3987 28.9478 23.9913 29.5198 23.714C30.1091 23.4367 30.8371 23.298 31.7038 23.298Z" fill="white"/>
<path d="M55.262 37H59.442V35.9H58.122V28.024C58.122 27.672 58.1 27.342 58.056 27.034C59.2293 25.9487 60.5273 25.406 61.95 25.406C63.5193 25.406 64.304 26.2787 64.304 28.024V35.9H62.984V37H67.164V35.9H65.844V28.024C65.844 25.4133 64.612 24.108 62.148 24.108C61.3267 24.108 60.5127 24.284 59.706 24.636C58.914 24.988 58.2613 25.4207 57.748 25.934C57.2053 24.7167 56.098 24.108 54.426 24.108C52.8713 24.108 51.478 24.6653 50.246 25.78L49.894 24.416H48.86H47.54V25.516H48.86V35.9H47.54V37H51.72V35.9H50.4V26.99C51.544 25.934 52.82 25.406 54.228 25.406C55.7973 25.406 56.582 26.2787 56.582 28.024V35.9H55.262V37ZM75.2921 37.308C76.2308 37.308 77.0155 37.198 77.6461 36.978C78.2915 36.758 78.7755 36.4427 79.0981 36.032C79.4355 35.6067 79.6775 35.174 79.8241 34.734C79.9708 34.2793 80.0735 33.7367 80.1321 33.106L78.8561 33.04C78.7681 34.008 78.4748 34.7487 77.9761 35.262C77.4775 35.7607 76.5681 36.01 75.2481 36.01C73.7961 36.01 72.8208 35.636 72.3221 34.888C71.8381 34.1253 71.5888 32.8493 71.5741 31.06H80.3301V30.708C80.3301 29.9307 80.3008 29.2633 80.2421 28.706C80.1835 28.134 80.0515 27.54 79.8461 26.924C79.6408 26.308 79.3548 25.8093 78.9881 25.428C78.6361 25.0467 78.1375 24.7313 77.4921 24.482C76.8615 24.2327 76.0988 24.108 75.2041 24.108C74.3095 24.108 73.5395 24.2327 72.8941 24.482C72.2488 24.7313 71.7428 25.0467 71.3761 25.428C71.0095 25.8093 70.7235 26.308 70.5181 26.924C70.3128 27.54 70.1808 28.134 70.1221 28.706C70.0635 29.2633 70.0341 29.9307 70.0341 30.708C70.0341 33.0107 70.3935 34.69 71.1121 35.746C71.8455 36.7873 73.2388 37.308 75.2921 37.308ZM75.1821 25.406C75.9301 25.406 76.5461 25.516 77.0301 25.736C77.5288 25.956 77.8955 26.2933 78.1301 26.748C78.3648 27.188 78.5261 27.6427 78.6141 28.112C78.7021 28.5813 78.7535 29.1607 78.7681 29.85H71.5741C71.5888 29.19 71.6401 28.6253 71.7281 28.156C71.8308 27.6867 71.9995 27.232 72.2341 26.792C72.4835 26.3373 72.8501 25.9927 73.3341 25.758C73.8328 25.5233 74.4488 25.406 75.1821 25.406ZM89.5626 37C90.3839 37 91.0879 36.9193 91.6746 36.758C92.2759 36.5967 92.7452 36.3913 93.0826 36.142C93.4346 35.8927 93.7059 35.57 93.8966 35.174C94.1019 34.778 94.2339 34.3967 94.2926 34.03C94.3512 33.6487 94.3806 33.2087 94.3806 32.71C94.3806 31.61 94.1752 30.7227 93.7646 30.048C93.3539 29.3587 92.5546 28.904 91.3666 28.684C92.2026 28.376 92.7672 27.9213 93.0606 27.32C93.3539 26.7187 93.5006 25.9633 93.5006 25.054C93.5006 24.57 93.4712 24.152 93.4126 23.8C93.3539 23.4333 93.2219 23.0667 93.0166 22.7C92.8259 22.3187 92.5546 22.0107 92.2026 21.776C91.8652 21.5267 91.3959 21.3287 90.7946 21.182C90.2079 21.0207 89.5039 20.94 88.6826 20.94H83.1826V22.04H84.5026V35.9H83.1826V37H89.5626ZM86.0866 35.702V29.454H89.5626C90.8532 29.454 91.7112 29.7253 92.1366 30.268C92.5766 30.796 92.7966 31.5807 92.7966 32.622C92.7966 33.634 92.5766 34.404 92.1366 34.932C91.7112 35.4453 90.8532 35.702 89.5626 35.702H86.0866ZM86.0866 28.112V22.238H88.6826C89.9732 22.238 90.8312 22.4873 91.2566 22.986C91.6966 23.47 91.9166 24.2033 91.9166 25.186C91.9166 26.1393 91.6966 26.8653 91.2566 27.364C90.8312 27.8627 89.9732 28.112 88.6826 28.112H86.0866ZM102.167 36.01C101.463 36.01 100.861 35.9073 100.363 35.702C99.8785 35.482 99.5045 35.2253 99.2405 34.932C98.9912 34.624 98.7932 34.2133 98.6465 33.7C98.4998 33.172 98.4118 32.7027 98.3825 32.292C98.3532 31.8667 98.3385 31.3387 98.3385 30.708C98.3385 30.0773 98.3532 29.5567 98.3825 29.146C98.4118 28.7207 98.4998 28.2513 98.6465 27.738C98.7932 27.21 98.9912 26.7993 99.2405 26.506C99.5045 26.198 99.8785 25.9413 100.363 25.736C100.861 25.516 101.463 25.406 102.167 25.406C102.871 25.406 103.465 25.516 103.949 25.736C104.447 25.9413 104.821 26.198 105.071 26.506C105.335 26.7993 105.54 27.21 105.687 27.738C105.833 28.2513 105.921 28.7207 105.951 29.146C105.98 29.5567 105.995 30.0773 105.995 30.708C105.995 31.3387 105.98 31.8667 105.951 32.292C105.921 32.7027 105.833 33.172 105.687 33.7C105.54 34.2133 105.335 34.624 105.071 34.932C104.821 35.2253 104.447 35.482 103.949 35.702C103.465 35.9073 102.871 36.01 102.167 36.01ZM102.167 37.308C102.841 37.308 103.443 37.242 103.971 37.11C104.513 36.978 104.968 36.8093 105.335 36.604C105.716 36.384 106.039 36.1053 106.303 35.768C106.581 35.4307 106.794 35.086 106.941 34.734C107.102 34.382 107.227 33.9713 107.315 33.502C107.403 33.018 107.461 32.5707 107.491 32.16C107.52 31.7347 107.535 31.2507 107.535 30.708C107.535 30.1653 107.52 29.6887 107.491 29.278C107.461 28.8527 107.403 28.4053 107.315 27.936C107.227 27.452 107.102 27.034 106.941 26.682C106.794 26.33 106.581 25.9853 106.303 25.648C106.039 25.3107 105.716 25.0393 105.335 24.834C104.968 24.614 104.513 24.438 103.971 24.306C103.443 24.174 102.841 24.108 102.167 24.108C101.492 24.108 100.883 24.174 100.341 24.306C99.8125 24.438 99.3578 24.614 98.9765 24.834C98.6098 25.0393 98.2872 25.3107 98.0085 25.648C97.7445 25.9853 97.5318 26.33 97.3705 26.682C97.2238 27.034 97.1065 27.452 97.0185 27.936C96.9305 28.4053 96.8718 28.8527 96.8425 29.278C96.8132 29.6887 96.7985 30.1653 96.7985 30.708C96.7985 31.2507 96.8132 31.7347 96.8425 32.16C96.8718 32.5707 96.9305 33.018 97.0185 33.502C97.1065 33.9713 97.2238 34.382 97.3705 34.734C97.5318 35.086 97.7445 35.4307 98.0085 35.768C98.2872 36.1053 98.6098 36.384 98.9765 36.604C99.3578 36.8093 99.8125 36.978 100.341 37.11C100.883 37.242 101.492 37.308 102.167 37.308ZM115.551 36.01C114.847 36.01 114.246 35.9073 113.747 35.702C113.263 35.482 112.889 35.2253 112.625 34.932C112.376 34.624 112.178 34.2133 112.031 33.7C111.885 33.172 111.797 32.7027 111.767 32.292C111.738 31.8667 111.723 31.3387 111.723 30.708C111.723 30.0773 111.738 29.5567 111.767 29.146C111.797 28.7207 111.885 28.2513 112.031 27.738C112.178 27.21 112.376 26.7993 112.625 26.506C112.889 26.198 113.263 25.9413 113.747 25.736C114.246 25.516 114.847 25.406 115.551 25.406C116.255 25.406 116.849 25.516 117.333 25.736C117.832 25.9413 118.206 26.198 118.455 26.506C118.719 26.7993 118.925 27.21 119.071 27.738C119.218 28.2513 119.306 28.7207 119.335 29.146C119.365 29.5567 119.379 30.0773 119.379 30.708C119.379 31.3387 119.365 31.8667 119.335 32.292C119.306 32.7027 119.218 33.172 119.071 33.7C118.925 34.2133 118.719 34.624 118.455 34.932C118.206 35.2253 117.832 35.482 117.333 35.702C116.849 35.9073 116.255 36.01 115.551 36.01ZM115.551 37.308C116.226 37.308 116.827 37.242 117.355 37.11C117.898 36.978 118.353 36.8093 118.719 36.604C119.101 36.384 119.423 36.1053 119.687 35.768C119.966 35.4307 120.179 35.086 120.325 34.734C120.487 34.382 120.611 33.9713 120.699 33.502C120.787 33.018 120.846 32.5707 120.875 32.16C120.905 31.7347 120.919 31.2507 120.919 30.708C120.919 30.1653 120.905 29.6887 120.875 29.278C120.846 28.8527 120.787 28.4053 120.699 27.936C120.611 27.452 120.487 27.034 120.325 26.682C120.179 26.33 119.966 25.9853 119.687 25.648C119.423 25.3107 119.101 25.0393 118.719 24.834C118.353 24.614 117.898 24.438 117.355 24.306C116.827 24.174 116.226 24.108 115.551 24.108C114.877 24.108 114.268 24.174 113.725 24.306C113.197 24.438 112.743 24.614 112.361 24.834C111.995 25.0393 111.672 25.3107 111.393 25.648C111.129 25.9853 110.917 26.33 110.755 26.682C110.609 27.034 110.491 27.452 110.403 27.936C110.315 28.4053 110.257 28.8527 110.227 29.278C110.198 29.6887 110.183 30.1653 110.183 30.708C110.183 31.2507 110.198 31.7347 110.227 32.16C110.257 32.5707 110.315 33.018 110.403 33.502C110.491 33.9713 110.609 34.382 110.755 34.734C110.917 35.086 111.129 35.4307 111.393 35.768C111.672 36.1053 111.995 36.384 112.361 36.604C112.743 36.8093 113.197 36.978 113.725 37.11C114.268 37.242 114.877 37.308 115.551 37.308ZM123.568 21.6H124.888V35.9H123.568V37H127.748V35.9H126.428V30.796H128.188L131.686 35.9H130.52V37H134.7V35.9H133.402L129.574 30.334L132.984 25.516H134.304V24.416H130.124V25.516H131.268L128.408 29.608H126.428V20.5H123.568V21.6Z" fill="#222222"/>
</svg>
